<svg width="280" height="43" viewBox="0 0 280 43" fill="none" xmlns="http://www.w3.org/2000/svg">
<path d="M0.735466 9.36C0.735466 6.82667 1.85547 4.73333 4.09547 3.08C6.33547 1.4 9.29547 0.559999 12.9755 0.559999C14.9221 0.559999 16.6688 0.759998 18.2155 1.16C19.7621 1.53333 20.9888 2.01333 21.8955 2.6C22.8021 3.18667 23.5621 3.86667 24.1755 4.64C25.1888 5.97333 25.6821 7.46667 25.6555 9.12C25.6555 10.7467 25.0155 12.2 23.7355 13.48C22.4555 14.76 20.9088 15.4267 19.0955 15.48C21.3621 15.64 23.3221 16.3867 24.9755 17.72C26.6555 19.0533 27.4955 20.7333 27.4955 22.76C27.4955 25.4267 26.4688 27.5067 24.4155 29C22.3621 30.4933 19.8555 31.24 16.8955 31.24C13.9621 31.24 11.9621 30.8533 10.8955 30.08L12.1355 26.72C13.3088 27.3333 14.6688 27.64 16.2155 27.64C17.7888 27.64 19.0688 27.1867 20.0555 26.28C21.0421 25.3467 21.5355 24.12 21.5355 22.6C21.5355 21.08 20.8555 19.8 19.4955 18.76C18.1621 17.72 16.3355 17.2 14.0155 17.2L14.3755 14.24C15.9755 14.24 17.3221 13.8667 18.4155 13.12C19.5355 12.3467 20.1088 11.2 20.1355 9.68C20.1888 8.16 19.5088 6.88 18.0955 5.84C16.5755 4.74667 14.4955 4.2 11.8555 4.2C10.1221 4.2 8.4288 4.65333 6.77547 5.56C5.12213 6.44 4.29547 7.62666 4.29547 9.12C4.29547 9.84 4.5888 10.4533 5.17547 10.96C5.76213 11.44 6.53547 11.7333 7.49547 11.84L7.05547 14.8C5.0288 14.72 3.4688 14.1467 2.37547 13.08C1.28213 12.0133 0.735466 10.7733 0.735466 9.36ZM12.1755 23.32C11.7488 26.1733 10.9221 28.2 9.69547 29.4C8.4688 30.5733 7.0288 31.16 5.37547 31.16C3.72213 31.16 2.4688 30.7333 1.61547 29.88C0.762132 29.0267 0.335466 27.9333 0.335466 26.6C0.335466 23.4533 2.72213 20.7733 7.49547 18.56C7.6288 17.44 7.81547 15.9333 8.05547 14.04C8.32213 12.12 8.52213 10.5733 8.65547 9.4C8.81547 8.22667 8.92213 7.45333 8.97547 7.08C10.0688 6.38667 11.3355 6.04 12.7755 6.04C13.4421 6.04 14.0821 6.10667 14.6955 6.24L12.1755 23.32ZM3.29547 26.08C3.29547 27.04 3.7488 27.52 4.65547 27.52C5.0288 27.52 5.41547 27.28 5.81547 26.8C6.24213 26.2933 6.53547 25.5067 6.69547 24.44L7.05547 21.96C4.5488 23.3733 3.29547 24.7467 3.29547 26.08ZM34.4967 1.56C35.11 0.919998 35.8567 0.599998 36.7367 0.599998C37.6167 0.599998 38.3634 0.919998 38.9767 1.56C39.6167 2.17333 39.9367 2.92 39.9367 3.8C39.9367 4.68 39.6167 5.42667 38.9767 6.04C38.3634 6.65333 37.6167 6.96 36.7367 6.96C35.8567 6.96 35.11 6.65333 34.4967 6.04C33.8834 5.42667 33.5767 4.68 33.5767 3.8C33.5767 2.92 33.8834 2.17333 34.4967 1.56ZM32.8567 13.28C33.1234 12.8 33.63 12.44 34.3767 12.2C35.1234 11.9333 35.8567 11.8 36.5767 11.8C37.3234 11.8 37.9767 11.8933 38.5367 12.08C37.4967 20.1067 36.9767 24.16 36.9767 24.24C36.8434 24.7733 36.7767 25.2267 36.7767 25.6C36.7767 25.9467 36.8034 26.2533 36.8567 26.52C36.9634 27.2133 37.4434 27.56 38.2967 27.56C39.1767 27.56 39.9767 27 40.6967 25.88C41.4434 24.7333 42.0034 23.44 42.3767 22C42.5634 22.1067 42.8567 22.4267 43.2567 22.96C43.6567 23.4933 43.8967 23.8933 43.9767 24.16C43.4434 26.2933 42.5367 28.0133 41.2567 29.32C39.9767 30.6267 38.4434 31.28 36.6567 31.28C34.87 31.28 33.5367 30.84 32.6567 29.96C31.8034 29.08 31.3767 27.9467 31.3767 26.56C31.3767 26.2667 31.39 25.96 31.4167 25.64L32.8567 13.28ZM54.2745 11.76C55.7412 11.76 57.0879 12 58.3145 12.48C59.1412 11.9733 60.0079 11.72 60.9145 11.72C61.8212 11.72 62.5412 11.84 63.0745 12.08L61.6345 23.36C63.6079 21.84 65.1012 20.4533 66.1145 19.2L67.2745 21.64C65.7545 23.24 63.7279 24.9467 61.1945 26.76L60.1145 35.12C59.8212 37.6267 58.9945 39.5467 57.6345 40.88C56.3012 42.24 54.5679 42.92 52.4345 42.92C51.2079 42.92 50.0079 42.52 48.8345 41.72C47.6079 40.8667 46.9945 39.4933 46.9945 37.6C46.9945 35.28 48.1012 33.16 50.3145 31.24C48.4212 31.1067 46.7945 30.32 45.4345 28.88C44.0745 27.44 43.3945 25.56 43.3945 23.24C43.3945 19.7467 44.4212 16.96 46.4745 14.88C48.5279 12.8 51.1279 11.76 54.2745 11.76ZM54.8745 14.88C53.1679 14.88 51.8079 15.5333 50.7945 16.84C49.8079 18.12 49.2212 20.04 49.0345 22.6C49.0079 22.84 48.9945 23.0667 48.9945 23.28C48.9945 24.5867 49.3012 25.6267 49.9145 26.4C50.5545 27.1733 51.3679 27.56 52.3545 27.56C54.0345 27.56 55.3012 26.3867 56.1545 24.04L57.1545 15.36C56.3279 15.04 55.5679 14.88 54.8745 14.88ZM50.0745 37C50.0745 37.72 50.2745 38.28 50.6745 38.68C51.1012 39.1067 51.5812 39.32 52.1145 39.32C53.6079 39.32 54.4745 38.3733 54.7145 36.48L55.3945 30.48C51.8479 32.5867 50.0745 34.76 50.0745 37ZM85.4436 12.16C84.3503 20.8 83.8036 25.4 83.8036 25.96C83.8036 27.0267 84.1903 27.56 84.9636 27.56C85.6569 27.56 86.4036 27.0933 87.2036 26.16C88.0303 25.2 88.6836 23.7733 89.1636 21.88C90.0436 22.84 90.5769 23.5867 90.7636 24.12C90.1503 26.7067 89.1769 28.5333 87.8436 29.6C86.5103 30.6667 85.1369 31.2 83.7236 31.2C81.4036 31.2 79.8436 30.3067 79.0436 28.52C77.6569 30.3067 75.8036 31.2 73.4836 31.2C71.5636 31.2 70.0836 30.72 69.0436 29.76C68.0036 28.8 67.4836 27.5467 67.4836 26C67.4836 25.6267 67.5503 24.9733 67.6836 24.04C68.2969 19.08 68.7636 15.1333 69.0836 12.2C69.9103 11.9067 70.6703 11.76 71.3636 11.76C72.0569 11.76 72.5769 11.7867 72.9236 11.84C73.2703 11.8933 73.6036 12.0933 73.9236 12.44C74.2436 12.7867 74.4036 13.28 74.4036 13.92L73.0836 24.12C73.0303 24.44 73.0036 24.7333 73.0036 25C73.0036 26.5733 73.7236 27.36 75.1636 27.36C76.4969 27.36 77.6036 26.7067 78.4836 25.4C78.4836 25.1067 78.5103 24.64 78.5636 24L79.8836 13.36C80.0703 12.9067 80.4703 12.5333 81.0836 12.24C81.6969 11.92 82.4569 11.76 83.3636 11.76C84.2969 11.76 84.9903 11.8933 85.4436 12.16ZM108.477 31.2C106.024 31.2 104.397 30.3467 103.597 28.64C102.21 30.3733 100.424 31.24 98.237 31.24C96.077 31.24 94.2504 30.5067 92.757 29.04C91.2904 27.5733 90.557 25.64 90.557 23.24C90.557 19.7467 91.5837 16.96 93.637 14.88C95.6904 12.8 98.2904 11.76 101.437 11.76C101.517 11.76 101.597 11.76 101.677 11.76C103.01 11.76 104.237 11.9867 105.357 12.44C106.077 11.9867 106.944 11.76 107.957 11.76C108.997 11.76 109.744 11.8933 110.197 12.16C109.957 14.1333 109.704 16.08 109.437 18C109.17 19.8933 108.984 21.24 108.877 22.04C108.637 23.8533 108.517 25.16 108.517 25.96C108.517 27.0267 108.944 27.56 109.797 27.56C110.464 27.56 111.17 27.12 111.917 26.24C112.664 25.3333 113.317 23.92 113.877 22C114.65 22.6933 115.184 23.4667 115.477 24.32C114.704 26.8533 113.664 28.64 112.357 29.68C111.05 30.6933 109.757 31.2 108.477 31.2ZM102.037 14.88C100.33 14.88 98.9704 15.5333 97.957 16.84C96.9704 18.12 96.3837 20.04 96.197 22.6C96.1704 22.84 96.157 23.0667 96.157 23.28C96.157 24.5867 96.4637 25.6267 97.077 26.4C97.717 27.1733 98.5304 27.56 99.517 27.56C101.197 27.56 102.464 26.3733 103.317 24L104.277 15.36C103.504 15.04 102.757 14.88 102.037 14.88ZM134.42 22.04C136.073 21.6933 137.3 21.0267 138.1 20.04C138.927 19.0533 139.34 18.1067 139.34 17.2C139.34 16.2667 139.087 15.64 138.58 15.32C138.1 14.9733 137.567 14.8 136.98 14.8C135.727 14.8 134.62 15.5067 133.66 16.92C132.727 18.3067 132.26 19.9733 132.26 21.92C132.26 23.84 132.713 25.28 133.62 26.24C134.553 27.1733 135.7 27.64 137.06 27.64C139.06 27.64 140.98 26.9467 142.82 25.56C144.66 24.1733 146.153 22.36 147.3 20.12C147.887 20.68 148.42 21.3733 148.9 22.2C148.02 24.2 146.46 26.16 144.22 28.08C143.1 29.0133 141.767 29.7733 140.22 30.36C138.7 30.9467 137.127 31.24 135.5 31.24C132.833 31.24 130.727 30.4267 129.18 28.8C127.527 27.04 126.7 24.7867 126.7 22.04C126.7 19.2933 127.727 16.8933 129.78 14.84C131.86 12.7867 134.34 11.76 137.22 11.76C139.273 11.76 140.94 12.2133 142.22 13.12C143.5 14 144.153 15.2 144.18 16.72C144.18 18.7733 143.353 20.44 141.7 21.72C140.073 23 137.833 23.8933 134.98 24.4L134.42 22.04ZM168.213 26.08C167.786 27.7333 167.106 29.0133 166.173 29.92C165.24 30.8 164.133 31.24 162.853 31.24C161.6 31.24 160.626 30.9867 159.933 30.48C159.266 29.9733 158.64 29.12 158.053 27.92L156.773 25.44L154.813 28.28C153.533 30.12 152.2 31.04 150.813 31.04C149.746 31.04 148.92 30.7467 148.333 30.16C147.773 29.5467 147.493 28.8133 147.493 27.96C147.493 26.52 148.053 25.4 149.173 24.6C150.32 23.7733 151.533 23.36 152.813 23.36C153.186 23.36 153.573 23.4 153.973 23.48L154.933 22.04C153.013 18.5733 151.96 16.6933 151.773 16.4C151.453 15.9467 151.146 15.72 150.853 15.72C150.586 15.72 150.36 15.8267 150.173 16.04C149.986 16.2267 149.893 16.4933 149.893 16.84C149.893 17.1867 149.946 17.5733 150.053 18L149.053 18.28C148.813 17.96 148.613 17.5067 148.453 16.92C148.293 16.3067 148.213 15.8267 148.213 15.48C148.213 14.1733 148.626 13.16 149.453 12.44C150.28 11.6933 151.36 11.32 152.693 11.32C154.32 11.32 155.586 12.2 156.493 13.96L158.133 17.12L160.333 13.68C160.973 12.6933 161.56 12.04 162.093 11.72C162.626 11.3733 163.306 11.2 164.133 11.2C164.986 11.2 165.72 11.5067 166.333 12.12C166.946 12.7067 167.253 13.4133 167.253 14.24C167.253 15.6533 166.746 16.7467 165.733 17.52C164.72 18.2933 163.6 18.68 162.373 18.68C162.133 18.68 161.826 18.6533 161.453 18.6L160.013 20.72C161.826 24.24 162.826 26.1733 163.013 26.52C163.413 27.24 163.92 27.6 164.533 27.6C165.36 27.6 166.013 26.8667 166.493 25.4L166.653 24.92C166.68 24.84 166.746 24.5733 166.853 24.12L168.213 26.08ZM164.773 14.28C164.506 14.28 164.253 14.4267 164.013 14.72C163.8 14.9867 163.28 15.7733 162.453 17.08C163.173 17.08 163.853 16.9067 164.493 16.56C165.133 16.1867 165.466 15.72 165.493 15.16C165.52 14.5733 165.28 14.28 164.773 14.28ZM152.653 24.96C151.906 24.96 151.186 25.1467 150.493 25.52C149.8 25.8933 149.453 26.36 149.453 26.92C149.453 27.48 149.693 27.76 150.173 27.76C150.733 27.76 151.666 26.8267 152.973 24.96H152.653ZM176.004 11.72C177.737 11.72 178.75 12.16 179.044 13.04C180.297 12.16 181.884 11.72 183.804 11.72C185.724 11.72 187.377 12.5067 188.764 14.08C190.15 15.6533 190.844 17.4933 190.844 19.6C190.844 19.8933 190.83 20.2 190.804 20.52C190.51 24.0133 189.337 26.68 187.284 28.52C185.23 30.3333 182.55 31.24 179.244 31.24C178.497 31.24 177.684 31.1467 176.804 30.96L175.524 41.96H170.284C171.99 27.2667 173.137 17.2933 173.724 12.04C174.284 11.8267 175.044 11.72 176.004 11.72ZM185.204 19.88C185.204 18.7067 184.937 17.6667 184.404 16.76C183.87 15.8533 183.044 15.4 181.924 15.4C180.404 15.4 179.244 16.3867 178.444 18.36C177.91 22.3067 177.604 24.6 177.524 25.24C177.497 26.04 177.75 26.64 178.284 27.04C178.817 27.44 179.47 27.64 180.244 27.64C181.604 27.64 182.724 27.0267 183.604 25.8C184.67 24.28 185.204 22.3067 185.204 19.88ZM207.375 17C207.375 15.8267 206.829 15.24 205.735 15.24C204.669 15.24 203.815 15.9333 203.175 17.32C206.055 19.5867 207.495 22.1333 207.495 24.96C207.495 27.0133 206.922 28.5733 205.775 29.64C204.629 30.7067 203.189 31.24 201.455 31.24C199.722 31.24 198.455 30.7067 197.655 29.64C196.855 28.5467 196.455 27.1733 196.455 25.52C196.455 25.0133 196.469 24.64 196.495 24.4L197.895 12.2C198.855 11.9067 199.829 11.76 200.815 11.76C202.442 11.76 203.255 12.36 203.255 13.56V13.64C204.322 12.3867 205.682 11.76 207.335 11.76C208.535 11.76 209.469 12.04 210.135 12.6C210.802 13.1333 211.135 13.8533 211.135 14.76C211.135 15.6667 210.789 16.4133 210.095 17C209.429 17.56 208.549 17.84 207.455 17.84C207.402 17.84 207.349 17.84 207.295 17.84C207.349 17.5467 207.375 17.2667 207.375 17ZM204.895 24.76C204.895 23.2133 204.095 21.6667 202.495 20.12C202.015 23.96 201.775 25.8933 201.775 25.92C201.775 27.04 202.229 27.6 203.135 27.6C204.309 27.6 204.895 26.6533 204.895 24.76ZM222.3 22.04C223.953 21.6933 225.18 21.0267 225.98 20.04C226.807 19.0533 227.22 18.1067 227.22 17.2C227.22 16.2667 226.967 15.64 226.46 15.32C225.98 14.9733 225.447 14.8 224.86 14.8C223.607 14.8 222.5 15.5067 221.54 16.92C220.607 18.3067 220.14 19.9733 220.14 21.92C220.14 23.84 220.593 25.28 221.5 26.24C222.433 27.1733 223.58 27.64 224.94 27.64C226.94 27.64 228.86 26.9467 230.7 25.56C232.54 24.1733 234.033 22.36 235.18 20.12C235.767 20.68 236.3 21.3733 236.78 22.2C235.9 24.2 234.34 26.16 232.1 28.08C230.98 29.0133 229.647 29.7733 228.1 30.36C226.58 30.9467 225.007 31.24 223.38 31.24C220.713 31.24 218.607 30.4267 217.06 28.8C215.407 27.04 214.58 24.7867 214.58 22.04C214.58 19.2933 215.607 16.8933 217.66 14.84C219.74 12.7867 222.22 11.76 225.1 11.76C227.153 11.76 228.82 12.2133 230.1 13.12C231.38 14 232.033 15.2 232.06 16.72C232.06 18.7733 231.233 20.44 229.58 21.72C227.953 23 225.713 23.8933 222.86 24.4L222.3 22.04ZM253.013 18.76C255.119 20.3067 256.173 22.1333 256.173 24.24C256.173 26.3467 255.346 28.04 253.693 29.32C252.039 30.6 249.959 31.24 247.453 31.24C245.826 31.24 244.466 30.84 243.373 30.04C242.306 29.2133 241.773 28.2 241.773 27C241.773 25.8 242.173 24.8533 242.973 24.16C243.773 23.44 244.773 23 245.973 22.84C245.413 23.64 245.133 24.4133 245.133 25.16C245.133 25.88 245.386 26.4667 245.893 26.92C246.399 27.3733 247.039 27.6 247.813 27.6C248.586 27.6 249.226 27.32 249.733 26.76C250.239 26.1733 250.493 25.5067 250.493 24.76C250.493 23.5333 249.919 22.44 248.773 21.48C248.079 20.92 247.333 20.4 246.533 19.92C245.733 19.4133 245.306 19.1467 245.253 19.12C245.146 19.04 245.039 18.9733 244.933 18.92C244.453 19.48 243.759 20.2533 242.853 21.24C241.946 22.2 241.226 22.9733 240.693 23.56C239.199 25.1867 238.359 26.5467 238.173 27.64C238.119 27.8533 238.093 28.2667 238.093 28.88C238.093 29.4667 238.266 30.08 238.613 30.72C238.986 31.36 239.426 31.84 239.933 32.16C240.439 32.48 240.933 32.7333 241.413 32.92C241.919 33.1333 242.346 33.28 242.693 33.36C243.066 33.44 243.253 33.4933 243.253 33.52C243.253 33.7067 242.959 33.92 242.373 34.16C241.279 34.56 240.133 34.76 238.933 34.76C237.759 34.76 236.613 34.3333 235.493 33.48C233.973 32.3067 233.213 30.7467 233.213 28.8C233.213 27.6 233.519 26.4133 234.133 25.24C235.226 23.16 237.786 20.3067 241.813 16.68C240.826 15.6933 240.333 14.64 240.333 13.52C240.333 12.4 240.746 11.4533 241.573 10.68C242.426 9.90667 243.426 9.52 244.573 9.52C245.613 9.52 246.519 9.93333 247.293 10.76C247.799 11.32 248.053 12.0267 248.053 12.88C248.053 13.7333 247.773 14.6933 247.213 15.76C250.066 17.04 251.999 18.04 253.013 18.76ZM244.333 14.24C244.973 13.5733 245.293 13.0933 245.293 12.8C245.293 12.1333 244.999 11.7733 244.413 11.72C243.746 11.72 243.413 12.0933 243.413 12.84C243.413 13.2933 243.719 13.76 244.333 14.24ZM276.399 18.76C278.505 20.3067 279.559 22.1333 279.559 24.24C279.559 26.3467 278.732 28.04 277.079 29.32C275.425 30.6 273.345 31.24 270.839 31.24C269.212 31.24 267.852 30.84 266.759 30.04C265.692 29.2133 265.159 28.2 265.159 27C265.159 25.8 265.559 24.8533 266.359 24.16C267.159 23.44 268.159 23 269.359 22.84C268.799 23.64 268.519 24.4133 268.519 25.16C268.519 25.88 268.772 26.4667 269.279 26.92C269.785 27.3733 270.425 27.6 271.199 27.6C271.972 27.6 272.612 27.32 273.119 26.76C273.625 26.1733 273.879 25.5067 273.879 24.76C273.879 23.5333 273.305 22.44 272.159 21.48C271.465 20.92 270.719 20.4 269.919 19.92C269.119 19.4133 268.692 19.1467 268.639 19.12C268.532 19.04 268.425 18.9733 268.319 18.92C267.839 19.48 267.145 20.2533 266.239 21.24C265.332 22.2 264.612 22.9733 264.079 23.56C262.585 25.1867 261.745 26.5467 261.559 27.64C261.505 27.8533 261.479 28.2667 261.479 28.88C261.479 29.4667 261.652 30.08 261.999 30.72C262.372 31.36 262.812 31.84 263.319 32.16C263.825 32.48 264.319 32.7333 264.799 32.92C265.305 33.1333 265.732 33.28 266.079 33.36C266.452 33.44 266.639 33.4933 266.639 33.52C266.639 33.7067 266.345 33.92 265.759 34.16C264.665 34.56 263.519 34.76 262.319 34.76C261.145 34.76 259.999 34.3333 258.879 33.48C257.359 32.3067 256.599 30.7467 256.599 28.8C256.599 27.6 256.905 26.4133 257.519 25.24C258.612 23.16 261.172 20.3067 265.199 16.68C264.212 15.6933 263.719 14.64 263.719 13.52C263.719 12.4 264.132 11.4533 264.959 10.68C265.812 9.90667 266.812 9.52 267.959 9.52C268.999 9.52 269.905 9.93333 270.679 10.76C271.185 11.32 271.439 12.0267 271.439 12.88C271.439 13.7333 271.159 14.6933 270.599 15.76C273.452 17.04 275.385 18.04 276.399 18.76ZM267.719 14.24C268.359 13.5733 268.679 13.0933 268.679 12.8C268.679 12.1333 268.385 11.7733 267.799 11.72C267.132 11.72 266.799 12.0933 266.799 12.84C266.799 13.2933 267.105 13.76 267.719 14.24Z" fill="#1A1A1A"/>
</svg>
