<svg width="37" height="37" viewBox="0 0 37 37" fill="none" xmlns="http://www.w3.org/2000/svg">
<g clip-path="url(#clip0_555_911)">
<path d="M27.75 9.25001H24.6667C24.6667 5.84293 21.9071 3.08334 18.5 3.08334C15.0929 3.08334 12.3334 5.84293 12.3334 9.25001H9.25002C7.55419 9.25001 6.16669 10.6375 6.16669 12.3333V30.8333C6.16669 32.5292 7.55419 33.9167 9.25002 33.9167H27.75C29.4459 33.9167 30.8334 32.5292 30.8334 30.8333V12.3333C30.8334 10.6375 29.4459 9.25001 27.75 9.25001ZM15.4167 15.4167C15.4167 16.2646 14.7229 16.9583 13.875 16.9583C13.0271 16.9583 12.3334 16.2646 12.3334 15.4167V12.3333H15.4167V15.4167ZM18.5 6.16668C20.1959 6.16668 21.5834 7.55418 21.5834 9.25001H15.4167C15.4167 7.55418 16.8042 6.16668 18.5 6.16668ZM24.6667 15.4167C24.6667 16.2646 23.9729 16.9583 23.125 16.9583C22.2771 16.9583 21.5834 16.2646 21.5834 15.4167V12.3333H24.6667V15.4167Z" fill="#1A1A1A"/>
</g>
<defs>
<clipPath id="clip0_555_911">
<rect width="37" height="37" fill="white"/>
</clipPath>
</defs>
</svg>
